<?xml version="1.0" encoding="UTF-8"?>
<!-- Generator: Adobe Illustrator 18.0.0, SVG Export Plug-In . SVG Version: 6.00 Build 0)  -->
<!DOCTYPE svg PUBLIC "-//W3C//DTD SVG 1.1//EN" "http://www.w3.org/Graphics/SVG/1.1/DTD/svg11.dtd">
<svg version="1.1" id="Capa_1" xmlns="http://www.w3.org/2000/svg" xmlns:xlink="http://www.w3.org/1999/xlink" x="0px" y="0px" viewBox="0 0 175.8 175.8" enable-background="new 0 0 175.8 175.8" xml:space="preserve">
<path fill="#51555A" stroke="#FFFFFF" stroke-width="1.8018" stroke-miterlimit="10" d="M153.5,35.1l-26.3-11.9c0,0-0.1,0-0.1,0  c-0.3-0.1-0.6-0.2-0.9-0.2c-1.2,0-2,0.7-2.1,1.8c0,0.1,0,0.2,0,0.3v23.8v43.8c0,1.3,0.8,2.1,2.1,2.1c1.3,0,2.1-0.8,2.1-2.1V50.2  l25-11.3c0.8-0.4,1.3-1,1.3-1.9S154.1,35.6,153.5,35.1z M128.3,45.8V28.5l19.2,8.5L128.3,45.8z"/>
<path fill="#51555A" stroke="#FFFFFF" stroke-width="1.8018" stroke-miterlimit="10" d="M63.9,115.3h-8.3c-1.3,0-2.1-0.8-2.1-2.1  V70.3l-5.2,6.5c-0.6,0.8-1.9,1-2.9,0.4l-11.7-8.3c-1.5-1.3-2.5-2.9-2.5-4.8s0.8-3.8,2.1-5L51,43.9c1-0.8,2.5-1.5,3.8-1.5H55h35V25.1  c0-0.6,0.2-1,0.6-1.5c0.4-0.4,1.3-0.6,1.9-0.6l0,0h8.5c1.3,0,2.1,0.8,2.1,2.1v27.9c0,0.6-0.2,1-0.6,1.5c-0.4,0.4-0.8,0.6-1.5,0.6  l0,0H79.1v11.3h9.6c5.4,0,9.6,4.4,9.6,9.6v16.7c0,1.3-0.8,2.1-2.1,2.1h-8.3c-1.3,0-2.1-0.8-2.1-2.1V79.9H66v33.3  C66,114.3,65,115.3,63.9,115.3z M57.5,111.2h4.2V77.8c0-1.3,0.8-2.1,2.1-2.1h24.2c1.3,0,2.1,0.8,2.1,2.1v12.7h4.2V76  c0-2.9-2.5-5.4-5.4-5.4H77c-1.3,0-2.1-0.8-2.1-2.1V53.1c0-0.6,0.2-1,0.6-1.5C76,51.2,76.4,51,77,51l0,0h21.9V27.2h-4.4v17.3  c0,1.3-0.8,2.1-2.1,2.1H55.8h-0.2l0,0c-0.4,0-0.8,0-1.5,0.4L36.4,62.2c-0.4,0.4-0.8,1-0.6,1.7c0,0.6,0.2,1.3,0.8,1.7l10,7.1l2.5-3.3  l-5.8-4c-0.6-0.4-0.8-1-0.8-1.7s0.2-1.3,0.6-1.7l11.3-9.6c0.6-0.6,1.5-0.6,2.3-0.2c0.8,0.4,1.3,1,1.3,1.9v57.1H57.5z M47.7,63.7  l5.4,3.8c0.2,0.2,0.2,0.2,0.4,0.4v-9L47.7,63.7z"/>
<path fill="#51555A" stroke="#FFFFFF" stroke-width="1.8018" stroke-miterlimit="10" d="M105.2,152.2c-4.6,0-8.1-3.8-8.1-8.1  c0-4.6,3.8-8.1,8.1-8.1c1.3,0,2.1-0.8,2.1-2.1s-0.8-2.1-2.1-2.1H33.5c-6.9,0-12.3,5.6-12.3,12.3s5.6,12.3,12.3,12.3H105  c1.3,0,2.1-0.8,2.1-2.1C107.3,153.1,106.2,152.2,105.2,152.2z M95.8,152.2H33.5c-4.4,0-8.1-3.8-8.1-8.1c0-4.6,3.8-8.1,8.1-8.1h62.3  c-1.9,2.1-3.1,5-3.1,8.1S93.9,150.1,95.8,152.2z"/>
<path fill="#51555A" stroke="#FFFFFF" stroke-width="1.8018" stroke-miterlimit="10" d="M129.5,131.6c-4.6,0-8.1-3.8-8.1-8.1  c0-4.6,3.8-8.1,8.1-8.1c1.3,0,2.1-0.8,2.1-2.1s-0.8-2.1-2.1-2.1H58.1c-6.9,0-12.3,5.6-12.3,12.3c0,6.7,5.6,12.3,12.3,12.3h71.5  c1.3,0,2.1-0.8,2.1-2.1S130.8,131.6,129.5,131.6z M120.4,131.6H58.1c-4.6,0-8.1-3.8-8.1-8.1c0-4.6,3.8-8.1,8.1-8.1h62.3  c-1.9,2.1-3.1,5-3.1,8.1C117.3,126.6,118.5,129.5,120.4,131.6z"/>
<path fill="#51555A" stroke="#FFFFFF" stroke-width="1.8018" stroke-miterlimit="10" d="M152.5,111.2c-4.6,0-8.1-3.8-8.1-8.1  c0-4.4,3.8-8.1,8.1-8.1c1.3,0,2.1-0.8,2.1-2.1s-0.8-2.1-2.1-2.1H81c-6.9,0-12.3,5.6-12.3,12.3c0,6.9,5.6,12.3,12.3,12.3h71.5  c1.3,0,2.1-0.8,2.1-2.1S153.7,111.2,152.5,111.2z M143.3,111.2H81c-4.6,0-8.1-3.8-8.1-8.1c0-4.4,3.8-8.1,8.1-8.1h62.3  c-1.9,2.1-3.1,5-3.1,8.1C140.2,106.2,141.2,108.9,143.3,111.2z"/>
<rect x="114.3" y="51.2" fill="#51555A" stroke="#FFFFFF" stroke-width="0.9009" stroke-miterlimit="10" width="4.2" height="4.2"/>
<rect x="114.3" y="62.4" fill="#51555A" stroke="#FFFFFF" stroke-width="0.9009" stroke-miterlimit="10" width="4.2" height="4.2"/>
<rect x="114.3" y="73.7" fill="#51555A" stroke="#FFFFFF" stroke-width="0.9009" stroke-miterlimit="10" width="4.2" height="4.2"/>
<path fill="#51555A" d="M69.6,43.8c-6.5,0-11.9-5.2-11.9-11.9s5.4-11.7,11.9-11.7c6.5,0,11.9,5.2,11.9,11.9S76,43.8,69.6,43.8z   M69.6,22.9c-5,0-9.3,4-9.3,9.3s4,9.3,9.3,9.3c5,0,9.3-4,9.3-9.3S74.6,22.9,69.6,22.9z"/>
<polygon fill="#FF6334" points="127.4,26.3 127.4,47.8 151.1,37.1 "/>
</svg>