<?xml version="1.0" encoding="UTF-8"?>
<!-- Generator: Adobe Illustrator 18.0.0, SVG Export Plug-In . SVG Version: 6.00 Build 0)  -->
<!DOCTYPE svg PUBLIC "-//W3C//DTD SVG 1.1//EN" "http://www.w3.org/Graphics/SVG/1.1/DTD/svg11.dtd">
<svg version="1.1" id="Capa_1" xmlns="http://www.w3.org/2000/svg" xmlns:xlink="http://www.w3.org/1999/xlink" x="0px" y="0px" viewBox="0 0 175.8 175.8" enable-background="new 0 0 175.8 175.8" xml:space="preserve">
<path fill="#51555A" stroke="#FFFFFF" stroke-width="4.433" stroke-miterlimit="10" d="M145.3,63.2l-43.6-43.6  c-0.8-0.8-1.8-1.2-2.9-1.2H44.2c-8.3,0-15,6.7-15,15v109.1c0,8.3,6.7,15,15,15h87.3c8.3,0,15-6.7,15-15V66.1  C146.5,65,146.1,63.9,145.3,63.2L145.3,63.2z M102.9,32.2L132.6,62h-22.9c-3.8,0-6.8-3.1-6.8-6.8V32.2z M131.5,149.3H44.2  c-3.8,0-6.8-3.1-6.8-6.8V33.3c0-3.8,3.1-6.8,6.8-6.8h50.5v28.7c0,8.3,6.7,15,15,15h28.7v72.3C138.4,146.2,135.3,149.3,131.5,149.3  L131.5,149.3z M131.5,149.3"/>
<g>
	
		<text transform="matrix(1 0 0 1 57.7124 129.1377)" fill="#FF6334" stroke="#FFFFFF" stroke-width="0.7714" stroke-miterlimit="10" font-family="'VAGRoundedLtNormal'" font-size="48.1006">20</text>
</g>
<g>
	<text transform="matrix(1 0 0 1 107.4912 102.7647)" fill="#FF6334" font-family="'VAGRoundedLtNormal'" font-size="30.672">+</text>
</g>
<path fill="#FF6334" stroke="#FF6334" stroke-width="4.433" stroke-miterlimit="10" d="M102.9,32.2L132.6,62h-22.9  c-3.8,0-6.8-3.1-6.8-6.8V32.2z"/>
</svg>