<?xml version="1.0" encoding="UTF-8"?>
<!-- Generator: Adobe Illustrator 18.0.0, SVG Export Plug-In . SVG Version: 6.00 Build 0)  -->
<!DOCTYPE svg PUBLIC "-//W3C//DTD SVG 1.1//EN" "http://www.w3.org/Graphics/SVG/1.1/DTD/svg11.dtd">
<svg version="1.1" id="Capa_1" xmlns="http://www.w3.org/2000/svg" xmlns:xlink="http://www.w3.org/1999/xlink" x="0px" y="0px" viewBox="0 0 175.8 175.8" enable-background="new 0 0 175.8 175.8" xml:space="preserve">
<path fill-rule="evenodd" clip-rule="evenodd" fill="#FF6334" stroke="#51555A" stroke-width="3" stroke-miterlimit="10" d="  M122.7,104.8c-10.7,1.1-4.7-7.3-7.3-10.6c-4.2,0.8-7.7,6.9-12.7,0.1c-3.9-5.2-10.7-9.4-9.2-16.4c3.3-15.5,10.7-21,26.6-22.3  c0.7-2.8-5-2.9-2.5-6.7c4.9-7-1.2-8.8-5.4-7.8c-11.6,2.7-17.3-4.9-23.8-11.6c-1.5-1.6-3-3.3-4.9-4.2c-2-1-4.2-1.5-3.6,2.5  c1.1,8.6-4.1,13-11.2,15.9c-4.5,1.9-9.7,3.2-10.8,9.2c-1.4,7.6-4.9,6.1-10.5,3.6c-4.5-2.1,1.9-6.1-3.3-7.2c-4.3,3.2-7.1,6-5.9,13.9  c1.2,8,7.7,9.4,11,14.4c9.1,14.1,17.2,29.2,23.2,44.4c5.2,13,13.7,18.6,24.4,23.8c7,3.4,13.3,7.4,17.6,14.1h7.5  c1.6-8.8,6.9-16.4,4.8-26.6c-0.7-3.6,0.4-10.9,2.4-16.5C130.6,112.5,125.7,104.4,122.7,104.8L122.7,104.8z M122.7,104.8"/>
<path fill-rule="evenodd" clip-rule="evenodd" fill="#FFFFFF" stroke="#51555A" stroke-width="3" stroke-miterlimit="10" d="  M126.9,100.5c-10.7,1.1-4.7-7.3-7.3-10.6c-4.2,0.8-7.7,6.9-12.7,0.1c-3.9-5.2-10.7-9.4-9.2-16.4c3.3-15.5,10.7-21,26.6-22.3  c0.7-2.8-5-2.9-2.5-6.7c4.9-7-1.2-8.8-5.4-7.8c-11.6,2.7-17.3-4.9-23.8-11.6c-1.5-1.6-3-3.3-4.9-4.2c-2-1-4.2-1.5-3.6,2.5  c1.1,8.6-4.1,13-11.2,15.9c-4.5,1.9-9.7,3.2-10.8,9.2c-1.4,7.6-4.9,6.1-10.5,3.6c-4.5-2.1,1.9-6.1-3.3-7.2c-4.3,3.2-7.1,6-5.9,13.9  c1.2,8,7.7,9.4,11,14.4c9.1,14.1,17.2,29.2,23.2,44.4c5.2,13,13.7,18.6,24.4,23.8c7,3.4,13.3,7.4,17.6,14.1h7.5  c1.6-8.8,6.9-16.4,4.8-26.6c-0.7-3.6,0.4-10.9,2.4-16.5C134.8,108.2,130,100.2,126.9,100.5L126.9,100.5z M126.9,100.5"/>
</svg>